<svg height='100px' width='100px'  fill="#000000" xmlns="http://www.w3.org/2000/svg" xmlns:xlink="http://www.w3.org/1999/xlink" xml:space="preserve" version="1.1" style="shape-rendering:geometricPrecision;text-rendering:geometricPrecision;image-rendering:optimizeQuality;" viewBox="0 0 591 591" x="0px" y="0px" fill-rule="evenodd" clip-rule="evenodd"><defs><style type="text/css">
   
    .fil0 {fill:#000000}
   
  </style></defs><g><path class="fil0" d="M295 0c-158,29 -274,188 -203,338 44,91 172,144 241,65 6,-6 10,-12 14,-20 -110,127 -335,-57 -210,-246 83,-124 249,-133 367,-50 -132,-92 -326,-62 -382,95 -34,95 20,223 124,217 8,-1 16,-3 24,-6 -168,13 -197,-277 26,-322 146,-29 270,83 295,224 -29,-158 -188,-274 -338,-203 -91,44 -144,172 -66,241 7,6 13,10 21,14 -127,-110 57,-335 246,-210 124,83 133,249 50,367 92,-132 62,-326 -95,-382 -95,-34 -223,20 -217,124 1,8 3,16 6,24 -13,-168 277,-197 321,26 30,146 -82,270 -224,295 159,-29 275,-188 204,-338 -44,-91 -172,-144 -241,-66 -6,7 -10,13 -14,21 110,-127 335,57 210,246 -83,124 -250,133 -367,50 132,92 326,62 382,-95 34,-95 -20,-223 -124,-217 -9,1 -16,3 -24,6 168,-13 197,277 -26,321 -146,30 -270,-82 -295,-224 29,159 188,275 337,204 92,-44 145,-173 66,-241 -6,-6 -12,-10 -20,-14 127,110 -57,335 -246,210 -124,-83 -133,-250 -50,-367 -92,132 -62,326 95,382 95,34 223,-20 216,-124 0,-8 -2,-16 -5,-24 13,168 -277,197 -321,-26 -30,-146 82,-270 223,-295z"></path></g></svg>