<svg height='100px' width='100px'  fill="#000000" xmlns="http://www.w3.org/2000/svg" xmlns:xlink="http://www.w3.org/1999/xlink" version="1.1" x="0px" y="0px" viewBox="0 0 66 66" enable-background="new 0 0 66 66" xml:space="preserve"><g><path d="M29.466,15.519c-6.005,2.547-10.537,8.322-11.544,14.711c-1.231,7.819,3.411,12.332,8.999,13.086   c3.051,0.412,6.382-0.347,9.384-2.138c2.074-1.237,3.588-2.725,4.502-4.422c0.698-1.296,1.017-2.706,0.945-4.044   c0.317,0.72,0.487,1.582,0.515,2.596c0.042,1.542-0.409,3.193-1.323,4.905c-0.092-0.043-0.199-0.044-0.276,0.032l-0.724,0.724   L39.177,40.2c-0.098-0.098-0.256-0.098-0.354,0c-0.098,0.098-0.098,0.256,0,0.354l0.769,0.769l-1.145,1.145L38.23,42.25   c-0.098-0.098-0.256-0.098-0.354,0c-0.098,0.098-0.098,0.256,0,0.354l0.217,0.217l-1.223,1.223l-0.69-0.69   c-0.098-0.098-0.256-0.098-0.354,0c-0.098,0.098-0.098,0.256,0,0.354l0.691,0.69l-0.375,0.375c-0.098,0.098-0.098,0.256,0,0.354   c0.098,0.098,0.256,0.098,0.353,0l0.375-0.375l0.157,0.157c-0.513,0.416-1.044,0.809-1.604,1.157l-0.958-0.958l0.979-0.979   c0.098-0.098,0.098-0.256,0-0.354c-0.098-0.098-0.256-0.098-0.353,0l-0.987,0.987c-0.098-0.076-0.236-0.079-0.327,0.011   c-0.09,0.09-0.088,0.229-0.011,0.327l-1.31,1.31l-0.848-0.848c-0.098-0.098-0.256-0.098-0.354,0c-0.098,0.098-0.098,0.256,0,0.354   l0.848,0.848l-0.848,0.848c-0.074,0.074-0.074,0.176-0.036,0.267c-0.075,0.02-0.148,0.048-0.223,0.066l-1.655-1.655l0.974-0.974   c0.098-0.098,0.098-0.256,0-0.354c-0.098-0.098-0.256-0.098-0.354,0l-0.974,0.974l-0.06-0.06c-0.098-0.098-0.256-0.098-0.354,0   c-0.098,0.098-0.098,0.256,0,0.354l0.06,0.06l-0.987,0.987l-1.558-1.558c-0.023-0.023-0.056-0.023-0.084-0.035l0.533-0.533   c0.098-0.098,0.098-0.256,0-0.354c-0.098-0.098-0.256-0.098-0.354,0l-2.085,2.085l-1.164-1.163c-0.098-0.098-0.256-0.098-0.354,0   c-0.098,0.098-0.098,0.256,0,0.354l1.164,1.163l-0.375,0.375c-0.065,0.065-0.071,0.152-0.049,0.235   c-0.553-0.146-1.097-0.318-1.63-0.522c0.083-0.098,0.085-0.242-0.008-0.335l-0.699-0.699l0.906-0.906   c0.098-0.098,0.098-0.256,0-0.354c-0.098-0.098-0.256-0.098-0.354,0l-0.906,0.906l-0.375-0.375c-0.098-0.098-0.256-0.098-0.354,0   c-0.098,0.098-0.098,0.256,0,0.354l0.375,0.375L20,46.567c-0.496-0.262-0.979-0.548-1.443-0.864   C8.635,38.93,8.391,22.343,21.48,13.02C27.51,8.726,34.48,6.935,40.435,7.496c0.335,0,0.521-0.198,0.544-0.453   c0.042-0.468-0.328-0.534-0.743-0.567C23.249,5.059,11.373,13.595,7.78,24.198c-1.563,4.61-1.559,9.688,0.012,14.296   c2.177,6.39,7.456,11.628,13.777,13.672c14.29,4.621,28.239-6.977,26.527-21.12c-1.28-10.559-12.591-10.905-17.207-9.29   c-4.431,1.55-7.464,5.554-6.97,10.484c-1.82-5.66,2.488-10.827,8.432-12.448c17.857-4.871,31.368,20.82,9.443,32.275   c-5.534,2.89-13.855,4.943-16.739,5.822c-0.226,0.069-0.373,0.287-0.352,0.522c0.021,0.235,0.203,0.424,0.438,0.452   c13.933,1.71,25.85-5.257,30.262-15.75C62.961,25.137,45.701,8.634,29.466,15.519z M39.946,41.676l0.065,0.065   c-0.312,0.445-0.649,0.873-1.006,1.283l-0.203-0.203L39.946,41.676z M37.224,44.397l1.223-1.223l0.21,0.21   c-0.393,0.423-0.81,0.822-1.247,1.2L37.224,44.397z M34.112,45.46l0.861,0.861c-0.562,0.325-1.145,0.61-1.742,0.862l-0.421-0.421   L34.112,45.46z M32.456,47.116l0.276,0.276c-0.275,0.105-0.555,0.195-0.836,0.283L32.456,47.116z M28.987,46.643l1.42,1.42   c-0.571,0.117-1.146,0.198-1.727,0.247L28,47.63L28.987,46.643z M28.022,48.359c-0.254,0.011-0.507,0.012-0.76,0.01l0.385-0.385   L28.022,48.359z M25.701,45.988c0.012,0.029,0.012,0.061,0.035,0.084l1.558,1.558l-0.611,0.611c-0.03,0.03-0.034,0.071-0.045,0.109   c-0.495-0.023-0.986-0.07-1.477-0.14c0.054-0.095,0.056-0.213-0.025-0.294l-0.682-0.682L25.701,45.988z M24.099,47.589l0.555,0.555   c-0.307-0.053-0.608-0.128-0.911-0.199L24.099,47.589z M20.631,46.643l0.413,0.413c-0.19-0.083-0.376-0.173-0.562-0.263   L20.631,46.643z M54.48,42.727C50.58,52,40.486,58.586,27.975,58.09c4.465-1.243,10.178-2.993,14.28-5.136   c22.967-12.002,8.842-39.308-10.17-34.127c-10.638,2.902-11.925,13.774-6.226,17.794c0.213,0.152,0.483,0.096,0.65-0.104   c0.167-0.198,0.133-0.51-0.051-0.693c-2.794-2.782-2.367-10.63,4.76-13.124c4.008-1.398,14.69-1.395,15.884,8.468   c1.621,13.388-11.588,24.457-25.226,20.048c-6.026-1.949-11.061-6.947-13.138-13.043c-1.499-4.401-1.504-9.25-0.011-13.653   c2.526-7.453,9.507-14.099,19.86-16.356C7.902,15.669,5.478,37.984,17.993,46.528c3.78,2.581,8.697,3.485,13.147,2.415   c4.451-1.068,8.421-4.104,10.619-8.119c1.049-1.917,1.557-3.782,1.509-5.544c-0.063-2.302-0.79-3.953-2.22-5.048   c-0.183-0.142-0.438-0.139-0.616,0.006c-0.18,0.143-0.238,0.391-0.142,0.6c0.731,1.587,0.592,3.672-0.363,5.443   c-0.827,1.536-2.218,2.895-4.135,4.037c-2.81,1.677-5.915,2.387-8.738,2.007c-4.999-0.676-9.296-4.636-8.145-11.939   c0.954-6.057,5.251-11.531,10.946-13.947C45.26,9.905,61.693,25.573,54.48,42.727z"></path><path d="M49.3,13.305c0.016,0.001,0.031,0.002,0.047,0.002c0.255,0,0.473-0.194,0.498-0.453l0.189-2.021l1.33,0.093   c0.262,0.022,0.514-0.179,0.534-0.464c0.019-0.276-0.189-0.515-0.464-0.534l-1.307-0.091l0.035-0.37   c0.041-0.427,0.115-1.221-0.385-1.767c-0.187-0.204-0.503-0.219-0.707-0.03c-0.204,0.187-0.217,0.502-0.031,0.706   c0.185,0.202,0.163,0.62,0.127,0.997l-0.037,0.394L47.477,9.65c-0.283-0.014-0.514,0.189-0.534,0.464   c-0.02,0.275,0.188,0.515,0.463,0.534l1.628,0.114l-0.187,1.997C48.823,13.035,49.025,13.278,49.3,13.305z"></path><path d="M64.473,28.529l-2.478,0.132l0.033-2.291c0.004-0.275-0.217-0.503-0.493-0.507c-0.293-0.013-0.503,0.216-0.507,0.493   l-0.034,2.358l-2.854,0.152c-0.276,0.015-0.488,0.25-0.473,0.525c0.015,0.267,0.235,0.474,0.499,0.474c0.009,0,0.018,0,0.027-0.001   l2.786-0.148l-0.041,2.796c-0.004,0.275,0.217,0.503,0.493,0.507c0.002,0,0.005,0,0.007,0c0.273,0,0.496-0.219,0.5-0.493   l0.042-2.863l2.545-0.135c0.276-0.015,0.488-0.25,0.473-0.525C64.984,28.727,64.747,28.515,64.473,28.529z"></path><path d="M53.86,53.834c-0.484,0.071-0.971,0.119-1.46,0.155c-0.015-0.731-0.04-1.462-0.099-2.187   c-0.023-0.275-0.27-0.483-0.54-0.457c-0.275,0.022-0.48,0.264-0.458,0.539c0.059,0.715,0.084,1.436,0.098,2.156   c-0.696,0.017-1.394,0.003-2.09-0.05c-0.283-0.043-0.516,0.185-0.537,0.46c-0.022,0.274,0.185,0.516,0.46,0.536   c1.046,0.081,1.461,0.063,2.168,0.046c-0.006,0.645-0.012,1.29-0.053,1.931c-0.018,0.275,0.191,0.514,0.467,0.531   c0.011,0.001,0.022,0.001,0.033,0.001c0.261,0,0.481-0.203,0.499-0.468c0.044-0.675,0.051-1.353,0.056-2.031   c0.537-0.038,1.071-0.094,1.603-0.172c0.273-0.041,0.462-0.295,0.422-0.567C54.387,53.983,54.141,53.8,53.86,53.834z"></path><path d="M17.502,55.633l-0.794,0.031c-0.037-0.685-0.12-1.366-0.302-2.025c-0.074-0.267-0.349-0.423-0.616-0.348   c-0.266,0.073-0.422,0.349-0.348,0.615c0.162,0.585,0.236,1.189,0.27,1.797l-2.118,0.083c-0.276,0.012-0.491,0.244-0.479,0.52   c0.011,0.269,0.232,0.48,0.499,0.48c0.007,0,0.014,0,0.021,0l2.085-0.082c-0.047,0.786-0.187,1.568-0.447,2.309   c-0.091,0.26,0.046,0.546,0.306,0.637c0.055,0.019,0.111,0.028,0.166,0.028c0.207,0,0.4-0.129,0.472-0.335   c0.302-0.86,0.465-1.767,0.511-2.679l0.816-0.032c0.276-0.011,0.491-0.243,0.48-0.52C18.011,55.837,17.777,55.644,17.502,55.633z"></path><path d="M3.906,36.658l-0.539,0.017l-0.174-1.371c-0.035-0.274-0.28-0.472-0.559-0.434c-0.274,0.035-0.468,0.285-0.433,0.559   l0.162,1.278l-0.879,0.028C1.208,36.745,0.991,36.976,1,37.252c0.008,0.271,0.23,0.484,0.499,0.484c0.005,0,0.011,0,0.016,0   l0.974-0.031l0.146,1.148c0.032,0.253,0.247,0.438,0.496,0.438c0.021,0,0.042-0.001,0.063-0.004   c0.274-0.035,0.468-0.285,0.433-0.559l-0.134-1.056l0.445-0.014c0.276-0.01,0.493-0.24,0.483-0.517   C4.413,36.865,4.141,36.633,3.906,36.658z"></path><path d="M8.117,14.47c0.008,0.869-0.066,1.738-0.233,2.582c-0.054,0.271,0.122,0.533,0.393,0.587   c0.033,0.007,0.065,0.01,0.098,0.01c0.234,0,0.443-0.165,0.49-0.403c0.197-0.992,0.268-2.017,0.24-3.038   c0.425-0.145,0.842-0.315,1.235-0.538c0.24-0.136,0.325-0.441,0.189-0.682c-0.136-0.239-0.439-0.325-0.682-0.19   c-0.258,0.146-0.527,0.269-0.802,0.376c-0.042-0.404-0.096-0.807-0.173-1.203c-0.053-0.271-0.316-0.444-0.587-0.396   c-0.271,0.054-0.448,0.315-0.395,0.587c0.083,0.427,0.14,0.861,0.179,1.298c-0.434,0.094-0.876,0.153-1.322,0.153   c-0.003,0-0.006,0-0.011,0c-0.276,0-0.499,0.224-0.5,0.499c0,0.28,0.252,0.498,0.511,0.501C7.209,14.615,7.666,14.557,8.117,14.47z   "></path></g></svg>