<svg height='100px' width='100px'  fill="#000000" xmlns="http://www.w3.org/2000/svg" xmlns:xlink="http://www.w3.org/1999/xlink" xml:space="preserve" style="shape-rendering:geometricPrecision;text-rendering:geometricPrecision;image-rendering:optimizeQuality;" viewBox="0 0 0.284732 0.284563" x="0px" y="0px" fill-rule="evenodd" clip-rule="evenodd"><defs><style type="text/css">
   
    .fil0 {fill:#000000}
   
  </style></defs><g><path class="fil0" d="M0.128429 0.109339c0.0152165,-0.0119331 -0.0152835,-0.0313819 -0.0503346,-0.0128937 0.0131102,-0.00805906 0.0276378,-0.0121181 0.0430433,-0.0104961 0.0150472,0.0020315 0.0294764,0.00971654 0.0360236,0.0239843 0.0122283,0.00147244 0.0111969,-0.0104488 0.00752756,-0.018563 -0.00673622,-0.0135157 -0.0199409,-0.0217992 -0.0340039,-0.0261496 0.0149606,0.00356693 0.028122,0.0109724 0.0378543,0.0230079 0.0092126,0.0120827 0.0139724,0.0277165 0.00852362,0.042437 0.011937,0.0152205 0.031378,-0.0152992 0.0128937,-0.0503346 0.00806299,0.0131024 0.0121181,0.0276417 0.0105,0.0430433 -0.00203543,0.0150591 -0.00972047,0.0294646 -0.0239843,0.0360236 -0.00147638,0.0122323 0.0104488,0.0111929 0.018563,0.00752362 0.0135118,-0.00673228 0.0217953,-0.0199409 0.0261457,-0.034 -0.00356693,0.0149606 -0.0109724,0.028122 -0.0230079,0.0378543 -0.0120787,0.0092126 -0.0277165,0.0139724 -0.042437,0.00852362 -0.0152165,0.0119803 0.0153465,0.0313583 0.0503346,0.0128898 -0.0130984,0.00806693 -0.0276457,0.012122 -0.0430394,0.0105039 -0.0150512,-0.00203543 -0.0294803,-0.00972047 -0.0360276,-0.0239882 -0.0122283,-0.00144882 -0.0112008,0.010437 -0.00752362,0.0185669 0.00675197,0.0135118 0.0199252,0.0217913 0.034,0.0261457 -0.0149646,-0.00356693 -0.028122,-0.0109724 -0.0378543,-0.0230079 -0.0092126,-0.0120787 -0.0139764,-0.0277205 -0.00852362,-0.042437 -0.0119764,-0.0152165 -0.0313583,0.0153346 -0.0128937,0.0503346 -0.00806299,-0.0131024 -0.0121181,-0.0276417 -0.0104961,-0.0430394 0.0020315,-0.0150512 0.00971654,-0.0294803 0.0239843,-0.0360276 0.00144882,-0.0122283 -0.010437,-0.0112008 -0.0185669,-0.00752362 -0.0135118,0.00675197 -0.0217913,0.0199252 -0.0261457,0.034 0.00356693,-0.0149646 0.0109724,-0.028122 0.0230079,-0.0378583 0.0120827,-0.00920866 0.0277165,-0.0139685 0.042437,-0.00851969z"></path><path class="fil0" d="M0.0566575 0.0410669c-0.0155276,0.0058937 -0.0302795,0.0148268 -0.0414961,0.0272244 -0.0102638,0.0115433 0.000952756,0.00453937 0.00684252,0.000358268 0.0246614,-0.0169843 0.0508898,-0.0281024 0.081315,-0.0276614 0.0220394,0.000834646 0.0434528,0.00774016 0.0599764,0.0227205 -0.027374,-0.0295709 -0.0695236,-0.0358386 -0.106638,-0.0226417z"></path><path class="fil0" d="M0.010189 0.131626c-0.00683465,0.0151378 -0.0109528,0.0318976 -0.0100709,0.0485945 0.000937008,0.0154213 0.0038937,0.00248031 0.00507874,-0.00462205 0.00491732,-0.0268622 0.0141142,-0.051 0.032689,-0.0714882 0.0168858,-0.0177638 0.0390354,-0.030189 0.0639016,-0.0310236 -0.0402205,-0.00222047 -0.0746654,0.0230669 -0.0915984,0.0585394z"></path><path class="fil0" d="M0.0413622 0.228524c0.00598425,0.0155433 0.0150709,0.0302362 0.0276299,0.0413346 0.0116614,0.010122 0.00484252,-0.000629921 0.000468504,-0.00661024 -0.015752,-0.0222362 -0.0265472,-0.0456496 -0.0281024,-0.0732087 -0.00080315,-0.0244016 0.00592913,-0.0488465 0.022874,-0.0669528 -0.029878,0.0266575 -0.0361181,0.0687047 -0.0228701,0.105437z"></path><path class="fil0" d="M0.131303 0.274945c0.0152795,0.00669685 0.032126,0.0105512 0.048874,0.0094252 0.0167165,-0.00125197 0.00282283,-0.00397244 -0.00383858,-0.00494882 -0.0267953,-0.00431496 -0.0509685,-0.0129213 -0.0716969,-0.0309803 -0.0179685,-0.0164213 -0.0307441,-0.0382362 -0.0318661,-0.062937 -0.00183465,0.0396024 0.0234488,0.0731654 0.0585276,0.0894409z"></path><path class="fil0" d="M0.227945 0.244571c0.0155433,-0.00612992 0.0301181,-0.0153661 0.0411732,-0.0280197 0.0108898,-0.0127283 -0.000370079,-0.0052126 -0.0059252,-0.00104331 -0.0218898,0.0159409 -0.0448701,0.0271024 -0.0722126,0.0293031 -0.0242913,0.00137795 -0.0488189,-0.00464173 -0.0673819,-0.0209528 0.0270394,0.0285906 0.0683071,0.0340748 0.104346,0.0207126z"></path><path class="fil0" d="M0.275205 0.154433c0.00663386,-0.015315 0.0104331,-0.0321535 0.00934252,-0.0489055 -0.00124016,-0.0167047 -0.00394094,-0.00347638 -0.00493701,0.00341339 -0.00426772,0.026748 -0.0126181,0.0509134 -0.0302953,0.0718898 -0.0161575,0.0182992 -0.037689,0.0315748 -0.0623858,0.0335433 0.0393661,0.000488189 0.0722559,-0.0249252 0.0882756,-0.0599409z"></path><path class="fil0" d="M0.244571 0.0568937c-0.00610236,-0.0155157 -0.015248,-0.0301457 -0.0277953,-0.0412717 -0.0126417,-0.0110039 -0.00488189,0.000716535 -0.000874016,0.00616929 0.0157913,0.0221181 0.0268504,0.0452717 0.0290709,0.0727008 0.00141732,0.0244843 -0.00451181,0.0491614 -0.0206102,0.0681299 0.0282756,-0.0278307 0.0336772,-0.0692913 0.0202087,-0.105728z"></path><path class="fil0" d="M0.153555 0.00988976c-0.0152323,-0.00670472 -0.0320276,-0.010689 -0.048748,-0.00975591 -0.0154016,0.000996063 -0.00312205,0.00385433 0.00424016,0.0050315 0.0268858,0.00471654 0.0510866,0.0135669 0.0719449,0.031689 0.0181929,0.0165709 0.0312323,0.0384252 0.0329843,0.0633268 0.000704724,-0.0400748 -0.0248622,-0.0737362 -0.0604213,-0.0902913z"></path></g></svg>