<svg height='100px' width='100px'  fill="#000000" xmlns="http://www.w3.org/2000/svg" data-name="Layer 1" viewBox="0 0 100 100" x="0px" y="0px"><title>icons_animals_8</title><path d="M18.54,22.45c-1.45,5-5.71,21.53-2.2,32.08,4.08,12.25,4.57,13,8.64,16.86,1.34,1.28,2.49,3.59,3.6,5.81,1.5,3,3,6.06,5.26,7.16.07,4.33-.6,9.13-1.9,9.78a10.86,10.86,0,0,1-2.6.81c-1.63.36-3.87.85-3.41,3.63a1,1,0,0,0,1,.84h6.52l.19,0c.31-.06,7.45-1.65,6-16.08.51-.31,1-.65,1.58-1,4.66-3,11-7.19,24.3-3.56A20.06,20.06,0,0,1,70.67,83a18.51,18.51,0,0,0,4.57,3.78c-.38,2.71-1.55,7.17-3.46,7.29a4.58,4.58,0,0,0-3.3,1.46,4.34,4.34,0,0,0-1,3,1,1,0,0,0,1,.93h6.87a1,1,0,0,0,.79-.38c.21-.26,4.9-6.36,5.11-12.77a10.48,10.48,0,0,0,1.91-2.14c3.26-4.74,5.11-13.31,3.31-22.06l.8-.48a10.52,10.52,0,0,1,.78,1.2c.7,1.2,1.5,2.55,2.78,2.81a2.32,2.32,0,0,0,1.89-.5c1.75-1.31,1.48-3.2,1.16-5.38a23,23,0,0,1,0-8.12,6.37,6.37,0,0,0-1.27-5.72c-1.7-1.87-4.45-2.25-6-2.31-.24-1.49-1.73-3.24-4.42-5.22-4.24-3.12-21.82-2.64-38.47-1.76-1.64.09-2.9.15-3.63.17a1.94,1.94,0,0,1-1.46-.51c-1.59-1.53-1.64-6.2-1.69-11.15,0-1.87,0-3.8-.14-5.71C36.28,10.29,27.67,3.7,22.1,3.7a1,1,0,0,0-.73,1.69c1.6,1.7,1.7,4.51,1.65,5.8-2.14.52-8.2,2.24-10.15,5.57a4.46,4.46,0,0,0-.41,3.78C13.09,22.44,16.26,22.6,18.54,22.45Zm14.76,75H28.1a5.92,5.92,0,0,1,1.67-.51,12.67,12.67,0,0,0,3.06-1c2.75-1.37,3-8.13,3-11.15a4.59,4.59,0,0,0,.75-.1,6.73,6.73,0,0,0,1.12-.36C38.59,95.34,33.91,97.21,33.3,97.41Zm41.53,0h-5.2a2,2,0,0,1,.35-.6A2.68,2.68,0,0,1,71.91,96c3.55-.23,4.85-6,5.25-8.63a6.56,6.56,0,0,0,1.12.1,3.57,3.57,0,0,0,.86-.12C78.57,91.87,75.75,96.13,74.84,97.41ZM34.76,19.5c.1,1.87.12,3.78.13,5.63.05,5.61.1,10.46,2.3,12.57a3.89,3.89,0,0,0,2.91,1.07c.74,0,2-.09,3.68-.18,9-.47,32.94-1.73,37.18,1.38,3.61,2.66,3.65,3.91,3.64,4.08a1,1,0,0,0-.06,1,1,1,0,0,0,1,.55s3.84-.3,5.61,1.65a4.5,4.5,0,0,1,.78,4,25.08,25.08,0,0,0,0,8.76c.31,2.19.35,2.95-.38,3.5,0,0-.21.15-.3.13-.41-.08-1.06-1.2-1.45-1.87-.63-1.08-1.18-2-2.08-2.24a1.54,1.54,0,0,0-1.21.19L86,60q-.42-1.56-1-3.11a36.34,36.34,0,0,0-6.57-10.39A1,1,0,0,0,77,47.93a35,35,0,0,1,6.14,9.74C87.25,68.5,84.41,78.74,81.49,83c-1.08,1.57-2.28,2.51-3.2,2.51-2.33,0-4.12-1.82-6.19-3.94-.59-.6-1.21-1.23-1.87-1.85-5.42-6.12-4.41-15.31-4.4-15.4a1,1,0,0,0-2-.24A25.66,25.66,0,0,0,66,76.79,38.05,38.05,0,0,0,56,75.35a25.31,25.31,0,0,0-8,1.25c2-3.14,4.2-8.73,4-17.92a1,1,0,0,0-1-1,1,1,0,0,0-1,1c.34,14.35-5.59,19.25-6.1,19.64-1.42.76-2.65,1.55-3.74,2.27a14,14,0,0,1-4,2.09c-2.18.47-3.71-2.24-5.8-6.42-1.19-2.38-2.42-4.84-4-6.36-3.7-3.55-4.08-3.92-8.13-16-3.6-10.79,1.67-29.07,2.52-31.9,6.37-3.35,6.33-4.75,6.31-5.21a1.41,1.41,0,0,0-.94-1.25,8,8,0,0,1-2.65-2.41l.68-.15a1,1,0,0,0,.79-.85A12.66,12.66,0,0,0,24.14,6C28.48,7.29,34.38,12.18,34.76,19.5ZM14.59,17.77c1.09-1.86,4.27-3.25,6.82-4.06a12.3,12.3,0,0,0,3.34,3.37,28.9,28.9,0,0,1-5.13,3.26c-2.61.31-5.06,0-5.27-.42A2.51,2.51,0,0,1,14.59,17.77Z"></path><path d="M22,58.13h.08a1,1,0,0,0,1-.92c0-.15,1.23-14.6,9.21-19.85a1,1,0,1,0-1.1-1.67C22.4,41.48,21.14,56.42,21.1,57.05A1,1,0,0,0,22,58.13Z"></path></svg>