<?xml version="1.0" encoding="UTF-8" standalone="no"?>
<!DOCTYPE svg PUBLIC "-//W3C//DTD SVG 1.1//EN" "http://www.w3.org/Graphics/SVG/1.1/DTD/svg11.dtd">
<svg version="1.1" xmlns="http://www.w3.org/2000/svg" xmlns:xlink="http://www.w3.org/1999/xlink" preserveAspectRatio="xMidYMid meet" viewBox="0 0 640 640" width="250" height="250"><defs><path d="M363.39 250.16C360.5 244.75 346.05 217.72 320.02 169.06C294 217.72 279.54 244.75 276.65 250.16C276.07 251.39 274.66 253.16 273.53 254.28C274.84 253.27 276.91 252.07 278.32 251.67C300.91 242.33 339.14 242.34 361.73 251.68C363.14 252.08 365.2 253.28 366.5 254.29C365.38 253.17 363.97 251.39 363.39 250.16ZM432.9 312.36C453.06 345.64 453.06 399.73 432.89 433C399.55 495.37 322 518.9 259.69 485.56C197.31 452.21 173.78 374.66 207.13 312.36C214.66 298.27 252.29 227.87 320.02 101.15C387.75 227.88 425.37 298.28 432.9 312.36ZM252.13 304.79C214.62 342.3 214.62 403.05 252.13 440.55C289.63 478.06 350.38 478.07 387.89 440.56C425.4 403.05 425.4 342.3 387.9 304.8C350.39 267.29 289.64 267.28 252.13 304.79Z" id="iRmuQtwx5"></path></defs><g><g><g><use xlink:href="#iRmuQtwx5" opacity="1" fill="#000000" fill-opacity="1"></use><g><use xlink:href="#iRmuQtwx5" opacity="1" fill-opacity="0" stroke="#000000" stroke-width="1" stroke-opacity="0"></use></g></g></g></g></svg>