<svg height='100px' width='100px'  fill="#000000" xmlns="http://www.w3.org/2000/svg" xmlns:xlink="http://www.w3.org/1999/xlink" version="1.1" x="0px" y="0px" viewBox="0 0 100 100" style="enable-background:new 0 0 100 100;" xml:space="preserve"><path d="M30.2214,63.0314c3.75391,1.38763,9.14817,0.87753,11.75404,0.61368  c9.64871-0.97695,18.51226-4.48625,20.95699-5.47055c3.27095-1.31695,14.34491-6.01509,19.87846-12.48925  c5.9521-6.96385,0.94362-10.65873-0.14587-11.46247c-6.44874-4.75738-21.36393-2.82409-23.6582-2.509  c1.83873-0.33018,18.57626-3.20902,25.88899,1.68824c1.03283,0.69167,6.49402,4.63,0.10195,12.14161  c-6.13279,7.20692-18.57324,12.29336-21.29089,13.40451c-3.33647,1.36416-12.28307,4.9613-22.05434,5.97742  c-2.42563,0.25224-8.62346,0.85401-12.78126-0.80797c-0.57964-0.23169-3.27848-1.38001-3.6369-3.93044  c-0.32944-2.34426,1.47205-4.7914,1.72211-4.84076c0.23756-0.04689-1.09819,2.10456-0.30925,4.33458  C26.90905,60.42102,27.50187,62.02613,30.2214,63.0314z"></path><path d="M72.99616,50.20213c-5.03397,3.97453-11.56885,6.58346-13.32769,7.25494  c-0.92393,0.36059-2.66031,1.00387-4.92205,1.67977c-1.27852,0.40124-2.71516,0.8009-4.27802,1.16764  c-2.9196,0.68815-6.24285,1.26463-9.60614,1.42329c-2.2243,0.10706-9.27048,0.44325-11.57941-2.32211  c-2.69329-3.2088,2.42501-8.94397,9.137-12.17724c0.72775-0.34993,1.46469-0.67133,2.18232-0.95496  c-0.25941,0.62987-0.45251,1.26987-0.57626,1.92953c-4.70053,2.59597-9.38018,7.18129-7.24538,9.96067  c1.80715,2.34916,7.54881,2.17039,9.47219,2.10779c1.56912-0.0536,3.12666-0.20851,4.63747-0.44296  c0.97237-0.1451,1.92295-0.32517,2.83884-0.51505c1.80962-0.38319,3.48395-0.82791,4.92094-1.25915  c1.05313-0.3182,1.96387-0.62203,2.71276-0.87367c0.62206-0.22137,1.12043-0.40291,1.48555-0.54147  c6.68521-2.46826,10.87252-5.28759,12.46242-6.45098c7.56992-5.49519,7.21746-10.01471,7.55064-10.12202  C79.1972,40,80.23305,44.48859,72.99616,50.20213z"></path><path d="M69.99144,37.41147c-3.75391-1.38763-9.14817-0.87753-11.75404-0.61368  c-9.64871,0.97695-18.51226,4.48625-20.95699,5.47055c-3.27095,1.31695-14.34491,6.01509-19.87846,12.48925  c-5.9521,6.96385-0.94361,10.65873,0.14587,11.46247c6.44873,4.75739,21.36393,2.82409,23.65819,2.509  c-1.83873,0.33018-18.57626,3.20902-25.88899-1.68824c-1.03283-0.69167-6.49402-4.62999-0.10195-12.14161  c6.13279-7.20692,18.57324-12.29336,21.29089-13.40451c3.33646-1.36416,12.28307-4.9613,22.05434-5.97742  c2.42563-0.25224,8.62346-0.85402,12.78126,0.80796c0.57964,0.2317,3.27848,1.38002,3.63689,3.93044  c0.32944,2.34426-1.47205,4.7914-1.72211,4.84076c-0.23756,0.04689,1.09819-2.10456,0.30925-4.33458  C73.30379,40.02185,72.71097,38.41674,69.99144,37.41147z"></path><path d="M47.74489,56.6431l-0.09162,0.30267l0.19699,0.22023c0.57529,0.64466,5.84034-0.55725,5.88792-0.57258  c0.06971-0.01193,0.78293-0.1786,1.86467-0.50595c-0.8655,0.83551-1.91543,1.45733-3.09572,1.83746  c-2.07509,0.6683-4.28695,0.48767-6.23441-0.50306c-1.94099-1.00328-3.37852-2.69398-4.04681-4.76902  c-0.60392-1.87518-0.52039-3.86666,0.24432-5.66779c0.0747-0.19212,0.16193-0.37783,0.25874-0.56662  c0.21944-0.42783,0.47013-0.82373,0.75213-1.18772c1.02908-1.37149,2.44638-2.35323,4.00743-2.85598  c0.27907-0.07943,0.54868-0.15574,0.81485-0.20991c1.77496-0.39306,3.6924-0.18065,5.42901,0.70987  c1.94747,0.99074,3.38807,2.69098,4.05636,4.76601c0.56099,1.74191,0.52325,3.58207-0.10446,5.28655  c-2.48785,1.14795-4.70602,1.89381-4.72508,1.89995c-1.4597,0.49114-2.67437,0.82982-3.56233,1.07373  C48.07448,56.26379,47.8715,56.31865,47.74489,56.6431z"></path><path d="M44.47628,41.60086c-0.4456,0.28009-0.83783,0.59551-1.23031,0.94256  c-0.04146,0.03432-0.08291,0.0687-0.11488,0.10003c-0.00947,0.00305-0.00947,0.00305-0.019,0.00612  c-0.25556,0.25037-0.50803,0.51033-0.73228,0.79261c-0.01258-0.0064-0.02211-0.00333-0.02858,0.0092  c-0.39976,0.12875-0.72675,0.25509-0.9807,0.34739c-6.69476,2.47127-10.86951,5.29714-12.472,6.45407  c-7.56988,5.49511-7.21746,10.01471-7.54106,10.11893c-0.33593,0.06612-1.37822-4.40982,5.86516-10.13603  c5.02445-3.97146,11.55934-6.58033,13.32763-7.25492C41.33452,42.67573,42.70585,42.17104,44.47628,41.60086z"></path><path d="M61.78941,53.21252c-0.83583,0.40577-1.69345,0.77655-2.50624,1.09083  c-0.47625,0.18493-0.94299,0.36673-1.38732,0.52035c-0.56802,0.19345-1.10752,0.37772-1.59297,0.53406l-0.00953,0.00307  c-1.59265,0.50241-2.67033,0.74439-2.67033,0.74439c-2.82444,0.65751-5.4771,0.90246-5.40239,0.71034  c0.05876-0.17654,2.08022-0.55441,4.90141-1.51551c0,0,1.95468-0.65055,4.27707-1.69263  c0.42249-0.18858,0.87056-0.39592,1.31856-0.60323c0.23522-0.11782,0.47992-0.23863,0.72469-0.35946  c0.16212-0.08376,0.33377-0.17059,0.49591-0.25429l-0.00307-0.00953c0.34025-0.18312,0.67745-0.37572,1.02108-0.58098  c0.34364-0.20525,0.67464-0.41689,1.01217-0.64114c0,0,0,0,0.00953-0.00307c0.66856-0.43596,1.30582-0.90384,1.91176-1.40363  c0.02552-0.01873,0.05097-0.03745,0.07648-0.05618c0.45608-0.37798,0.89648-0.77195,1.29578-1.16319  c0.31945-0.31301,0.6263-0.63248,0.892-0.94915c0.09276-0.10342,0.18552-0.20684,0.26567-0.31672  c0.79104-0.96915,1.32599-1.9504,1.48392-2.86269c0.01659-0.07889,0.02371-0.15474,0.03078-0.23056  c0.02406-0.18633,0.02904-0.36658,0.01192-0.55016c-0.00548-0.0823-0.01093-0.16455-0.03546-0.24071  c-0.06245-0.38963-0.21365-0.76113-0.48209-1.10545c-1.79766-2.35215-7.54881-2.17039-9.4627-2.11078  c-0.32267,0.00934-0.65178,0.03133-0.97138,0.05019c-0.3196,0.01887-0.62968,0.03466-0.94314,0.07259  c-0.15506,0.00794-0.31958,0.01892-0.47159,0.03633c-0.28488,0.02872-0.56982,0.05745-0.85163,0.0957  c-0.42429,0.05258-0.83912,0.10212-1.24774,0.17068c-0.0126-0.00646-0.02212-0.00339-0.02212-0.00339  c-0.36864-0.1334-0.72162-0.25082-1.09399-0.33051c-0.00953,0.00307-0.02213-0.00339-0.02213-0.00339  c-0.12615-0.03292-0.23018-0.06245-0.36285-0.08276c-0.01254-0.00648-0.02206-0.00341-0.02206-0.00341  c-0.51758-0.10647-1.02929-0.16225-1.55087-0.18337c2.75135-0.62345,5.82708-1.12027,8.94048-1.272  c2.22432-0.107,9.27048-0.44325,11.58889,2.31906C73.61973,44.24414,68.50143,49.97931,61.78941,53.21252z"></path></svg>